<svg xmlns="http://www.w3.org/2000/svg" xmlns:xlink="http://www.w3.org/1999/xlink" version="1.1" x="0px" y="0px" viewBox="0 0 36 45" enable-background="new 0 0 36 36" xml:space="preserve"><circle cx="18" cy="14.303" r="3.061"/><path d="M11.334,20.409h13.333c1.652,0,2.99-1.34,2.99-2.99v-6.23c0-1.651-1.338-2.99-2.99-2.99h-0.69  C23.69,6.845,22.491,5.83,21.054,5.83h-6.106c-1.438,0-2.637,1.015-2.923,2.368h-0.69c-1.651,0-2.99,1.339-2.99,2.99v6.23  C8.344,19.069,9.683,20.409,11.334,20.409z M18,9.941c2.408,0,4.361,1.953,4.361,4.361S20.408,18.664,18,18.664  s-4.361-1.953-4.361-4.361S15.592,9.941,18,9.941z M10.523,10.441h1.496c0.447,0,0.81,0.362,0.81,0.809  c0,0.448-0.362,0.81-0.81,0.81h-1.496c-0.446,0-0.81-0.361-0.81-0.81C9.714,10.804,10.077,10.441,10.523,10.441z"/><path d="M28.894,11.727c0,0,8.818,4.685,3.223,9.675c-0.909,0.809-4.951,3.364-11.055,3.865v2.505  c3.585-0.392,9.227-1.55,12.423-4.959C40.286,15.558,28.894,11.727,28.894,11.727z"/><path d="M18.459,25.884l-4.079-2.79c-0.531-0.364-0.967-0.134-0.967,0.51v1.485c-5.245-0.756-8.698-2.947-9.528-3.688  c-5.596-4.99,3.223-9.675,3.223-9.675s-11.393,3.831-4.592,11.086c2.773,2.958,7.383,4.22,10.897,4.759c0,0.046,0,0.102,0,0.145  v1.771c0,0.646,0.436,0.874,0.967,0.511l4.079-2.791C18.992,26.843,18.992,26.248,18.459,25.884z"/><text x="0" y="51" fill="#000000" font-size="5px" font-weight="bold" font-family="'Helvetica Neue', Helvetica, Arial-Unicode, Arial, Sans-serif">Created by Pinky</text><text x="0" y="56" fill="#000000" font-size="5px" font-weight="bold" font-family="'Helvetica Neue', Helvetica, Arial-Unicode, Arial, Sans-serif">from the Noun Project</text></svg>