<svg xmlns="http://www.w3.org/2000/svg" xmlns:xlink="http://www.w3.org/1999/xlink" version="1.1" x="0px" y="0px" viewBox="0 0 100 125" style="enable-background:new 0 0 100 100;" xml:space="preserve"><g><path d="M22,78c1,1,2.3,1.5,3.5,1.5S28.1,79,29,78l21-21l21,21c1,1,2.3,1.5,3.5,1.5S77.1,79,78,78c2-2,2-5.1,0-7.1l-21-21l21-21   c2-2,2-5.1,0-7.1c-2-2-5.1-2-7.1,0l-21,21L29,22c-2-2-5.1-2-7.1,0c-2,2-2,5.1,0,7.1l21,21L22,71C20,72.9,20,76.1,22,78z"/></g><text x="0" y="115" fill="#000000" font-size="5px" font-weight="bold" font-family="'Helvetica Neue', Helvetica, Arial-Unicode, Arial, Sans-serif">Created by Icon Depot</text><text x="0" y="120" fill="#000000" font-size="5px" font-weight="bold" font-family="'Helvetica Neue', Helvetica, Arial-Unicode, Arial, Sans-serif">from the Noun Project</text></svg>