<svg xmlns="http://www.w3.org/2000/svg" xmlns:xlink="http://www.w3.org/1999/xlink" viewBox="0 0 100 125" version="1.1" x="0px" y="0px"><title>Expand 8.2</title><desc>Created with Sketch.</desc><g stroke="none" stroke-width="1" fill="none" fill-rule="evenodd"><g fill="#000000"><path d="M53.9401991,55.3544127 C53.7444624,55.158676 53.3632914,55 53.0928552,55 L46.9071448,55 C46.6349064,55 46.2520048,55.1622087 46.0598009,55.3544127 L38.2686262,63.1455873 C38.0728895,63.341324 38.1333345,63.5 38.4092179,63.5 L44.0049956,63.5 C44.278379,63.5 44.5,63.714035 44.5,64.0046844 L44.5,64.9953156 C44.5,65.2740451 44.2723472,65.5 43.9903505,65.5 L35.0096495,65.5 C34.7281779,65.5 34.5,65.2723472 34.5,64.9903505 L34.5,56.0096495 C34.5,55.7281779 34.714035,55.5 35.0046844,55.5 L35.9953156,55.5 C36.2740451,55.5 36.5,55.7191209 36.5,55.9950044 L36.5,61.5907821 C36.5,61.8641654 36.6622087,61.9235777 36.8544127,61.7313738 L44.6455873,53.9401991 C44.841324,53.7444624 45,53.3632914 45,53.0928552 L45,46.9071448 C45,46.6349064 44.8377913,46.2520048 44.6455873,46.0598009 L36.8544127,38.2686262 C36.658676,38.0728895 36.5,38.1333345 36.5,38.4092179 L36.5,44.0049956 C36.5,44.278379 36.285965,44.5 35.9953156,44.5 L35.0046844,44.5 C34.7259549,44.5 34.5,44.2723472 34.5,43.9903505 L34.5,35.0096495 C34.5,34.7281779 34.7276528,34.5 35.0096495,34.5 L43.9903505,34.5 C44.2718221,34.5 44.5,34.714035 44.5,35.0046844 L44.5,35.9953156 C44.5,36.2740451 44.2808791,36.5 44.0049956,36.5 L38.4092179,36.5 C38.1358346,36.5 38.0764223,36.6622087 38.2686262,36.8544127 L46.0598009,44.6455873 C46.2555376,44.841324 46.6367086,45 46.9071448,45 L53.0928552,45 C53.3650936,45 53.7479952,44.8377913 53.9401991,44.6455873 L61.7313738,36.8544127 C61.9271105,36.658676 61.8666655,36.5 61.5907821,36.5 L55.9950044,36.5 C55.721621,36.5 55.5,36.285965 55.5,35.9953156 L55.5,35.0046844 C55.5,34.7259549 55.7276528,34.5 56.0096495,34.5 L64.9903505,34.5 C65.2718221,34.5 65.5,34.7276528 65.5,35.0096495 L65.5,43.9903505 C65.5,44.2718221 65.285965,44.5 64.9953156,44.5 L64.0046844,44.5 C63.7259549,44.5 63.5,44.2808791 63.5,44.0049956 L63.5,38.4092179 C63.5,38.1358346 63.3377913,38.0764223 63.1455873,38.2686262 L55.3544127,46.0598009 C55.158676,46.2555376 55,46.6367086 55,46.9071448 L55,53.0928552 C55,53.3650936 55.1622087,53.7479952 55.3544127,53.9401991 L63.1455873,61.7313738 C63.341324,61.9271105 63.5,61.8666655 63.5,61.5907821 L63.5,55.9950044 C63.5,55.721621 63.714035,55.5 64.0046844,55.5 L64.9953156,55.5 C65.2740451,55.5 65.5,55.7276528 65.5,56.0096495 L65.5,64.9903505 C65.5,65.2718221 65.2723472,65.5 64.9903505,65.5 L56.0096495,65.5 C55.7281779,65.5 55.5,65.285965 55.5,64.9953156 L55.5,64.0046844 C55.5,63.7259549 55.7191209,63.5 55.9950044,63.5 L61.5907821,63.5 C61.8641654,63.5 61.9235777,63.3377913 61.7313738,63.1455873 L53.9401991,55.3544127 Z M47.4910052,47 C47.2198305,47 47,47.2278805 47,47.4910052 L47,52.5089948 C47,52.7801695 47.2278805,53 47.4910052,53 L52.5089948,53 C52.7801695,53 53,52.7721195 53,52.5089948 L53,47.4910052 C53,47.2198305 52.7721195,47 52.5089948,47 L47.4910052,47 Z"/></g></g><text x="0" y="115" fill="#000000" font-size="5px" font-weight="bold" font-family="'Helvetica Neue', Helvetica, Arial-Unicode, Arial, Sans-serif">Created by Landan Lloyd</text><text x="0" y="120" fill="#000000" font-size="5px" font-weight="bold" font-family="'Helvetica Neue', Helvetica, Arial-Unicode, Arial, Sans-serif">from the Noun Project</text></svg>